<?xml version="1.0" standalone="no"?>
<!DOCTYPE svg PUBLIC "-//W3C//DTD SVG 20010904//EN"
 "http://www.w3.org/TR/2001/REC-SVG-20010904/DTD/svg10.dtd">
<svg version="1.0" xmlns="http://www.w3.org/2000/svg"
 width="512.000000pt" height="512.000000pt" viewBox="0 0 512.000000 512.000000"
 preserveAspectRatio="xMidYMid meet">

<g transform="translate(0.000000,512.000000) scale(0.100000,-0.100000)"
fill="#000000" stroke="none">
<path d="M1176 4380 c-67 -26 -131 -91 -156 -158 -20 -52 -20 -80 -20 -1672 0
-1592 0 -1620 20 -1672 38 -103 148 -178 260 -178 112 0 222 75 260 178 20 52
20 80 20 1672 0 1592 0 1620 -20 1672 -53 141 -221 214 -364 158z m219 -19
c50 -22 118 -96 136 -147 12 -33 14 -307 14 -1669 l0 -1630 -21 -45 c-60 -128
-212 -188 -346 -137 -56 22 -129 97 -149 153 -21 58 -21 3270 0 3328 16 45 81
120 123 142 71 37 167 39 243 5z"/>
<path d="M2466 4380 c-67 -26 -131 -91 -156 -158 -20 -52 -20 -80 -20 -1672 0
-1592 0 -1620 20 -1672 38 -103 148 -178 260 -178 112 0 222 75 260 178 20 52
20 80 20 1672 0 1592 0 1620 -20 1672 -53 141 -221 214 -364 158z m236 -27
c51 -28 80 -59 114 -123 18 -34 19 -93 19 -1680 l0 -1645 -30 -54 c-51 -92
-125 -135 -235 -135 -110 0 -184 43 -235 135 l-30 54 -3 1600 c-2 880 0 1623
3 1651 9 77 58 151 124 191 62 37 86 43 165 37 38 -3 75 -13 108 -31z"/>
<path d="M3756 4380 c-67 -26 -131 -91 -156 -158 -20 -52 -20 -80 -20 -1672 0
-1592 0 -1620 20 -1672 38 -103 148 -178 260 -178 112 0 222 75 260 178 20 52
20 80 20 1672 0 1592 0 1620 -20 1672 -53 141 -221 214 -364 158z"/>
</g>
</svg>
